{"title":"Marvels Daredevil S01 1080p BluRay HEVC DD5.1 x265","uid":15983576,"size":12017899001,"categoryP":"video","categoryS":"hd___tv_shows","magnet":"?xt=urn:btih:4bf483200d0b6abf9485103ef7d981e0754ff24d&amp;dn=Marvels+Daredevil+S01+1080p+BluRay+HEVC+DD5.1+x265&amp;tr=udp%3A%2F%2Ftracker.leechers-paradise.org%3A6969&amp;tr=udp%3A%2F%2Fzer0day.ch%3A1337&amp;tr=udp%3A%2F%2Fopen.demonii.com%3A1337&amp;tr=udp%3A%2F%2Ftracker.coppersurfer.tk%3A6969&amp;tr=udp%3A%2F%2Fexodus.desync.com%3A6969","seeders":1,"leechers":3,"uploader":"nayhtut","files":13,"time":1475933814,"description":"[Screenshots Gallery Link]\r\n\r\n[https://postimg.org/gallery/1du6f0dyk]\r\n\r\n\r\nSource:Marvels Daredevil S01 1080p BluRay x264-SHORTBREHD(55.75 GB)\r\n\r\n\r\nContains:  Marvels Daredevil Season One Episode 01 to 13\r\n\r\nFormat                                   : Matroska\r\nFormat version                           : Version 4 / Version 2\r\nFile size                                : 11.19 GiB\r\nDuration                                 : Various\r\nOverall bit rate                         : 2 305 Kbps\r\nWriting application                      : Lavf57.25.100\r\nWriting library                          : Lavf57.25.100\r\n\r\nVideo\r\n\r\nID                                       : 1\r\nFormat                                   : V_MPEGH/ISO/HEVC\r\nCodec ID                                 : V_MPEGH/ISO/HEVC\r\nDuration                                 : 52mn 55s\r\nBit rate                                 : 1 875 Kbps\r\nWidth                                    : 1 920 pixels\r\nHeight                                   : 1 080 pixels\r\nDisplay aspect ratio                     : 16:9\r\nFrame rate                               : 25.000 fps\r\nBits/(Pixel*Frame)                       : 0.036\r\nStream size                              : 710 MiB (81%)\r\nWriting library                          : Lavc57.48.101 libx265\r\nDefault                                  : Yes\r\nForced                                   : No\r\n\r\nAudio\r\n\r\nID                                       : 2\r\nFormat                                   : AC-3\r\nFormat/Info                              : Audio Coding 3\r\nMode extension                           : CM (complete main)\r\nFormat settings, Endianness              : Big\r\nCodec ID                                 : A_AC3\r\nDuration                                 : 52mn 55s\r\nBit rate mode                            : Constant\r\nBit rate                                 : 384 Kbps\r\nChannel(s)                               : 6 channels\r\nChannel positions                        : Front: L C R, Side: L R, LFE\r\nSampling rate                            : 48.0 KHz\r\nBit depth                                : 16 bits\r\nCompression mode                         : Lossy\r\nStream size                              : 145 MiB (17%)\r\nWriting library                          : Lavc57.24.102 ac3\r\nLanguage                                 : English\r\nDefault                                  : Yes\r\nForced                                   : No\r\n\r\nText\r\n\r\nID                                       : 3\r\nFormat                                   : ASS\r\nCodec ID                                 : S_TEXT/ASS\r\nLanguage                                 : English","torrent":{"xt":"urn:btih:4bf483200d0b6abf9485103ef7d981e0754ff24d","amp;dn":"Marvels+Daredevil+S01+1080p+BluRay+HEVC+DD5.1+x265","amp;tr":["udp%3A%2F%2Ftracker.leechers-paradise.org%3A6969","udp%3A%2F%2Fzer0day.ch%3A1337","udp%3A%2F%2Fopen.demonii.com%3A1337","udp%3A%2F%2Ftracker.coppersurfer.tk%3A6969","udp%3A%2F%2Fexodus.desync.com%3A6969"],"infoHash":"4bf483200d0b6abf9485103ef7d981e0754ff24d","infoHashBuffer":{"type":"Buffer","data":[75,244,131,32,13,11,106,191,148,133,16,62,247,217,129,224,117,79,242,77]},"announce":[],"urlList":[]}}